<svg xmlns="http://www.w3.org/2000/svg" viewBox="0 0 1600 160" fill="none">
  <defs>
    <linearGradient id="adb-bg" x1="800" y1="0" x2="800" y2="160" gradientUnits="userSpaceOnUse">
      <stop offset="0" stop-color="#1b1610"/>
      <stop offset="1" stop-color="#080808"/>
    </linearGradient>
    <linearGradient id="adb-gold" x1="800" y1="0" x2="800" y2="160" gradientUnits="userSpaceOnUse">
      <stop offset="0" stop-color="#f1d98c"/>
      <stop offset="0.5" stop-color="#b78d34"/>
      <stop offset="1" stop-color="#f1d98c"/>
    </linearGradient>
    <linearGradient id="adb-plaque" x1="800" y1="28" x2="800" y2="130" gradientUnits="userSpaceOnUse">
      <stop offset="0" stop-color="#1a1e26"/>
      <stop offset="1" stop-color="#06080e"/>
    </linearGradient>
    <pattern id="adb-pattern" width="160" height="120" patternUnits="userSpaceOnUse">
      <path d="M0 120L80 0L160 120" stroke="#d1aa56" stroke-width="6" opacity="0.55"/>
      <path d="M18 120L80 28L142 120" stroke="#f4da92" stroke-width="2" opacity="0.4"/>
      <path d="M80 0V120" stroke="#d1aa56" stroke-width="2" opacity="0.3"/>
      <path d="M44 70L80 24L116 70" stroke="#e5c779" stroke-width="2" opacity="0.35"/>
      <path d="M60 120L80 84L100 120" stroke="#d1aa56" stroke-width="2" opacity="0.3"/>
    </pattern>
  </defs>

  <rect width="1600" height="160" fill="url(#adb-bg)"/>
  <rect x="0" y="0" width="1600" height="160" fill="url(#adb-pattern)" opacity="0.95"/>
  <path d="M0 11H1600" stroke="url(#adb-gold)" stroke-width="6"/>
  <path d="M0 149H1600" stroke="url(#adb-gold)" stroke-width="6"/>
  <path d="M312 80L370 28H1230L1288 80L1230 132H370L312 80Z" fill="url(#adb-plaque)" stroke="#e4c579" stroke-width="5"/>
  <path d="M332 80L382 40H1218L1268 80L1218 120H382L332 80Z" stroke="#9f7a2d" stroke-width="2"/>
  <path d="M300 80H250M1350 80H1300" stroke="#d6b15e" stroke-width="4" stroke-linecap="round"/>
  <path d="M255 67L236 80L255 93" stroke="#d6b15e" stroke-width="4" stroke-linecap="round" stroke-linejoin="round"/>
  <path d="M1345 67L1364 80L1345 93" stroke="#d6b15e" stroke-width="4" stroke-linecap="round" stroke-linejoin="round"/>
</svg>
